<svg width="100" height="100" viewBox="0 0 100 100" fill="none" xmlns="http://www.w3.org/2000/svg">
<rect width="100" height="100" fill="white"/>
<path d="M41.2637 76.209C46.0862 76.209 50 72.2951 50 67.4727V58.7363H41.2637C36.4412 58.7363 32.5273 62.6502 32.5273 67.4727C32.5273 72.2951 36.4412 76.209 41.2637 76.209Z" fill="#0ACF83"/>
<path d="M32.5273 50.0003C32.5273 45.1778 36.4412 41.2639 41.2637 41.2639H50V58.7366H41.2637C36.4412 58.7366 32.5273 54.8227 32.5273 50.0003Z" fill="#A259FF"/>
<path d="M32.5273 32.5276C32.5273 27.7051 36.4412 23.7913 41.2637 23.7913H50V41.264H41.2637C36.4412 41.264 32.5273 37.3501 32.5273 32.5276Z" fill="#F24E1E"/>
<path d="M50.001 23.791H58.7373C63.5598 23.791 67.4737 27.7049 67.4737 32.5274C67.4737 37.3498 63.5598 41.2637 58.7373 41.2637H50.001V23.791Z" fill="#FF7262"/>
<path d="M67.4737 50.0003C67.4737 54.8227 63.5598 58.7366 58.7373 58.7366C53.9149 58.7366 50.001 54.8227 50.001 50.0003C50.001 45.1778 53.9149 41.2639 58.7373 41.2639C63.5598 41.2639 67.4737 45.1778 67.4737 50.0003Z" fill="#1ABCFE"/>
</svg>
