<svg width="76" height="76" viewBox="0 0 76 76" fill="none" xmlns="http://www.w3.org/2000/svg">
<rect width="76" height="76" fill="#080808"/>
<circle cx="37.9994" cy="38" r="37.8138" fill="#080808"/>
<path d="M38.0032 19.8816C27.9973 19.8816 19.8848 27.9941 19.8848 38C19.8848 48.0059 27.9973 56.1184 38.0032 56.1184C48.0091 56.1184 56.1216 48.0059 56.1216 38C56.1216 27.9941 48.0091 19.8816 38.0032 19.8816ZM38.0032 47.0592C33.0002 47.0592 28.944 43.003 28.944 38C28.944 32.9971 33.0002 28.9408 38.0032 28.9408C43.0061 28.9408 47.0624 32.9971 47.0624 38C47.0624 43.003 43.0061 47.0592 38.0032 47.0592Z" fill="white"/>
<path d="M44.6048 22.1463L43.2822 15.3519H32.7146L31.392 22.1463H44.6048ZM31.392 53.8536L32.7146 60.648H43.2822L44.6048 53.8536H31.392ZM27.5713 24.3523L21.026 22.0988L15.7422 31.2531L20.9648 35.794L27.5713 24.3523ZM48.4256 51.6477L54.9708 53.9011L60.2546 44.7468L55.032 40.2059L48.4256 51.6477ZM20.9648 40.2059L15.7422 44.7468L21.026 53.9011L27.5713 51.6477L20.9648 40.2059ZM55.032 35.794L60.2546 31.2531L54.9708 22.0988L48.4256 24.3523L55.032 35.794Z" fill="white"/>
</svg>
