<svg width="76" height="76" viewBox="0 0 76 76" fill="none" xmlns="http://www.w3.org/2000/svg">
<rect width="76" height="76" fill="#080808"/>
<circle cx="38" cy="38" r="38" fill="#080808"/>
<path d="M38.0006 15.8394C25.8122 15.8394 15.8398 25.8117 15.8398 38.0001C15.8398 50.1885 25.8122 60.1608 38.0006 60.1608C50.189 60.1608 60.1613 50.1885 60.1613 38.0001C60.1613 25.8117 50.189 15.8394 38.0006 15.8394ZM42.6543 42.6538L26.9202 49.0804L33.3468 33.3463L49.0809 26.9197L42.6543 42.6538Z" fill="white"/>
<path d="M37.9993 35.7839C37.4115 35.7839 36.8479 36.0174 36.4323 36.433C36.0167 36.8486 35.7832 37.4123 35.7832 38C35.7832 38.5877 36.0167 39.1514 36.4323 39.567C36.8479 39.9826 37.4115 40.2161 37.9993 40.2161C38.587 40.2161 39.1507 39.9826 39.5663 39.567C39.9819 39.1514 40.2153 38.5877 40.2153 38C40.2153 37.4123 39.9819 36.8486 39.5663 36.433C39.1507 36.0174 38.587 35.7839 37.9993 35.7839Z" fill="white"/>
</svg>
