<svg width="705" height="511" viewBox="0 0 705 511" fill="none" xmlns="http://www.w3.org/2000/svg">
<g opacity="0.2">
<path d="M134.649 475.616H127.944L126.854 307.884H135.74L134.649 475.616Z" fill="#EBEBEB"/>
<path d="M135.751 308.153L135.575 335.222L134.649 475.616H127.944L127.029 335.222L126.854 308.153H135.751Z" fill="#E0E0E0"/>
<path d="M135.751 308.153L135.575 335.515H127.029L126.854 308.153H135.751Z" fill="#D6D6D6"/>
<path d="M205.829 475.616H199.123L187.084 307.884H195.982L205.829 475.616Z" fill="#EBEBEB"/>
<path d="M205.841 475.616H199.123L187.67 316.219L187.084 308.153H195.982L196.462 316.219L205.841 475.616Z" fill="#E0E0E0"/>
<path d="M196.462 315.82H187.67L187.084 308.153H195.982L196.462 315.82Z" fill="#D6D6D6"/>
<path d="M63.4653 475.616H56.7598L66.6071 307.884H75.5048L63.4653 475.616Z" fill="#EBEBEB"/>
<path d="M75.5048 308.153L74.9186 316.219L63.4536 475.616H56.7598L66.1264 316.219L66.6071 308.153H75.5048Z" fill="#E0E0E0"/>
<path d="M66.6096 308.153H75.5073L74.9211 315.82H66.1289L66.6096 308.153Z" fill="#D6D6D6"/>
<path d="M59.5645 303.687H203.054V309.548C203.054 309.881 202.988 310.21 202.861 310.518C202.734 310.825 202.547 311.104 202.312 311.339C202.077 311.574 201.798 311.761 201.49 311.888C201.183 312.015 200.854 312.081 200.521 312.081H62.0966C61.7641 312.081 61.4348 312.015 61.1276 311.888C60.8204 311.761 60.5412 311.574 60.3061 311.339C60.071 311.104 59.8844 310.825 59.7572 310.518C59.6299 310.21 59.5645 309.881 59.5645 309.548V303.687Z" fill="#EBEBEB"/>
<path d="M59.5645 303.687H203.054V309.548C203.054 309.881 202.988 310.21 202.861 310.518C202.734 310.825 202.547 311.104 202.312 311.339C202.077 311.574 201.798 311.761 201.49 311.888C201.183 312.015 200.854 312.081 200.521 312.081H62.0966C61.7641 312.081 61.4348 312.015 61.1276 311.888C60.8204 311.761 60.5412 311.574 60.3061 311.339C60.071 311.104 59.8844 310.825 59.7572 310.518C59.6299 310.21 59.5645 309.881 59.5645 309.548V303.687Z" fill="#E0E0E0"/>
<path d="M203.03 303.687H59.5645V307.884H203.03V303.687Z" fill="#D6D6D6"/>
<path d="M207.19 304.777H55.4012C54.7794 304.777 54.1831 304.53 53.7434 304.091C53.3037 303.651 53.0566 303.055 53.0566 302.433C53.0566 301.811 53.3037 301.215 53.7434 300.775C54.1831 300.335 54.7794 300.088 55.4012 300.088H207.19C207.812 300.088 208.408 300.335 208.848 300.775C209.288 301.215 209.535 301.811 209.535 302.433C209.535 303.055 209.288 303.651 208.848 304.091C208.408 304.53 207.812 304.777 207.19 304.777Z" fill="#EBEBEB"/>
<path d="M207.19 304.777H55.4012C54.7794 304.777 54.1831 304.53 53.7434 304.091C53.3037 303.651 53.0566 303.055 53.0566 302.433C53.0566 301.811 53.3037 301.215 53.7434 300.775C54.1831 300.335 54.7794 300.088 55.4012 300.088H207.19C207.812 300.088 208.408 300.335 208.848 300.775C209.288 301.215 209.535 301.811 209.535 302.433C209.535 303.055 209.288 303.651 208.848 304.091C208.408 304.53 207.812 304.777 207.19 304.777Z" fill="#EBEBEB"/>
<path d="M159.866 295.2V297.943C159.866 298.763 158.448 299.35 157.639 299.35H93.491C92.6704 299.35 91.3574 298.763 91.3574 297.943V295.2H159.866Z" fill="#EBEBEB"/>
<path d="M159.866 295.2V297.943C159.866 298.763 158.448 299.35 157.639 299.35H93.491C92.6704 299.35 91.3574 298.763 91.3574 297.943V295.2H159.866Z" fill="#EBEBEB"/>
<path d="M159.864 295.2V297.943C159.864 298.763 158.446 299.35 157.637 299.35H115.329C114.508 299.35 113.148 298.763 113.148 297.943V295.2H159.864Z" fill="#D6D6D6"/>
<path d="M170.157 261.473L162.513 296.231C162.38 296.798 162.067 297.306 161.621 297.68C161.176 298.054 160.621 298.274 160.04 298.306H118.318C118.049 298.282 117.788 298.198 117.556 298.06C117.324 297.921 117.126 297.733 116.976 297.508C116.826 297.283 116.729 297.027 116.691 296.759C116.654 296.492 116.677 296.219 116.759 295.962L124.378 261.578C124.527 261.048 124.858 260.587 125.312 260.277C125.767 259.966 126.316 259.825 126.864 259.878H168.574C169.699 259.902 170.403 260.335 170.157 261.473Z" fill="#EBEBEB"/>
<path d="M170.157 261.473L162.513 296.231C162.38 296.798 162.067 297.306 161.621 297.68C161.176 298.054 160.621 298.274 160.04 298.306H118.318C118.049 298.282 117.788 298.198 117.556 298.06C117.324 297.921 117.126 297.733 116.976 297.508C116.826 297.283 116.729 297.027 116.691 296.759C116.654 296.492 116.677 296.219 116.759 295.962L124.378 261.578C124.527 261.048 124.858 260.587 125.312 260.277C125.767 259.966 126.316 259.825 126.864 259.878H168.574C169.699 259.902 170.403 260.335 170.157 261.473Z" fill="#E0E0E0"/>
<path d="M170.158 261.473L162.515 296.231C162.381 296.798 162.068 297.306 161.623 297.68C161.177 298.054 160.622 298.274 160.041 298.306H119.737C119.468 298.282 119.208 298.197 118.975 298.059C118.743 297.921 118.544 297.733 118.393 297.508C118.243 297.283 118.144 297.028 118.105 296.761C118.066 296.493 118.087 296.22 118.167 295.962L125.798 261.578C125.947 261.048 126.277 260.587 126.732 260.277C127.186 259.966 127.736 259.825 128.283 259.878H168.575C169.701 259.902 170.404 260.335 170.158 261.473Z" fill="#EBEBEB"/>
</g>
<path d="M145.484 284.746C147.43 284.746 149.423 282.66 149.927 280.057C150.431 277.455 149.271 275.368 147.313 275.368C146.944 275.37 146.579 275.438 146.234 275.567C146.056 276.485 145.663 277.347 145.089 278.084C144.514 278.822 143.774 279.413 142.928 279.811C142.925 279.881 142.925 279.952 142.928 280.022C142.366 282.66 143.538 284.746 145.484 284.746Z" fill="white" fill-opacity="0.1"/>
<g opacity="0.25">
<path d="M607.646 388.604V414.486H645.495H687.263V388.604H607.646Z" fill="#EBEBEB"/>
<path d="M604.307 381.366V388.604H690.05V381.366H645.5H604.307Z" fill="#E0E0E0"/>
<path d="M647.168 414.486H687.263V388.604H690.046V381.366H645.496V387.93L647.168 414.486Z" fill="#D6D6D6"/>
<path d="M704.735 476.781L702.839 73.833H695.039V153.2H674.886L674.511 73.8455H666.712V153.2H597.378L597.004 73.8455H589.204V153.2H569.113L568.739 73.8455H560.939V476.781H570.636L570.386 422.71H589.204V476.781H598.913L598.651 422.747H666.712V476.781H676.408L676.158 422.71H695.039V476.781H704.735ZM579.284 369.312L572.308 339.437H586.621L579.284 369.312ZM589.204 341.271V411.828L580.756 375.639L589.204 341.271ZM589.204 238.719L580.756 202.529L589.204 168.175V238.719ZM587.695 245.195H570.224L579.159 208.844L587.695 245.195ZM579.284 196.202L571.297 161.935H587.695L579.284 196.202ZM577.736 202.517L569.488 235.998L569.163 165.828L577.736 202.517ZM569.999 342.507L577.736 375.626L570.249 405.85L569.999 342.507ZM579.209 381.953L586.696 413.899H571.359L579.209 381.953ZM570.261 330.639L570.199 330.365H569.949L569.587 253.955H589.204V330.589L570.261 330.639ZM597.852 254.005H666.712V330.639H598.189L597.852 254.005ZM684.494 208.844L692.98 245.195H675.559L684.494 208.844ZM675.26 234.064L674.948 167.925L683.047 202.504L675.26 234.064ZM695.039 241.052L686.042 202.529L695.039 165.941V241.052ZM695.039 245.07V245.195H694.49L695.039 245.07ZM695.039 343.368V409.619L687.103 375.639L695.039 343.368ZM685.63 369.312L678.654 339.437H693.03L685.63 369.312ZM684.569 196.202L676.583 161.935H693.03L684.569 196.202ZM695.039 254.005V330.639H676.608V330.365L675.784 330.552L675.422 254.005H695.039ZM684.083 375.626L676.084 408.134L675.772 339.998L684.083 375.626ZM685.555 381.953L693.043 413.899H677.706L685.555 381.953ZM666.712 161.935V245.145H597.815L597.428 161.935H666.712ZM599.862 413.899H598.614L598.264 339.437H666.712V413.899H599.862Z" fill="#E0E0E0"/>
<path d="M599.85 245.595V236.497H664.079L664.279 245.595H599.85Z" fill="#D6D6D6"/>
<path d="M607.314 236.135V227.051H658.191L658.354 236.135H607.314Z" fill="#E0E0E0"/>
<path d="M607.088 227.151V218.066H657.965L658.127 227.151H607.088Z" fill="#D6D6D6"/>
<path d="M666.709 92.9758H653.818V153.037H666.709V92.9758Z" fill="#D6D6D6"/>
<path d="M653.623 92.9758H640.732V153.037H653.623V92.9758Z" fill="#E0E0E0"/>
<path d="M641.158 92.9758H628.268V153.037H641.158V92.9758Z" fill="#EBEBEB"/>
<path d="M666.709 270.727H653.818V330.789H666.709V270.727Z" fill="#D6D6D6"/>
<path d="M653.623 270.727H640.732V330.789H653.623V270.727Z" fill="#E0E0E0"/>
<path d="M641.158 270.727H628.268V330.789H641.158V270.727Z" fill="#EBEBEB"/>
<path d="M612.324 152.114L627.811 99.2777L622.47 96.9441L606.584 150.205L612.324 152.114Z" fill="#D6D6D6"/>
</g>
<path opacity="0.4" d="M158.65 177.87V0.867188L0.0558319 0.867188V177.87H158.65Z" fill="#575757"/>
<path opacity="0.5" d="M11.8169 166.111L146.916 166.111L146.916 12.6032L11.8169 12.6032L11.8169 166.111Z" fill="#575757"/>
<path d="M84.3534 171.209H122.404V117.957H84.3534V171.209Z" fill="#575757"/>
<path d="M38.5762 175.862H76.6154L79.3526 122.597H41.3134L38.5762 175.862Z" fill="#575757"/>
<path d="M5.43945 109.91H43.4786L46.2159 56.6455H8.17668L5.43945 109.91Z" fill="#575757"/>
<path d="M121.86 61.3717L151.119 62.6543L152.914 21.7057L123.655 20.4231L121.86 61.3717Z" fill="#575757"/>
<path d="M5.44605 44.9213L34.7051 46.2039L36.5001 5.2553L7.24106 3.97271L5.44605 44.9213Z" fill="#575757"/>
<path d="M152.302 69.0747L123.018 68.6863L122.474 109.671L151.758 110.059L152.302 69.0747Z" fill="#575757"/>
<path d="M54.6053 107.845L116.631 106.048L114.115 19.2213L52.089 21.0188L54.6053 107.845Z" fill="#575757"/>
<path d="M493.017 47.5015H195.162C188.535 47.5015 183.162 52.8741 183.162 59.5015V460.11C183.162 466.738 188.535 472.11 195.162 472.11H493.017C499.644 472.11 505.017 466.738 505.017 460.11V59.5015C505.017 52.874 499.644 47.5015 493.017 47.5015Z" fill="white"/>
<path d="M492.544 48.0212H195.67C189.043 48.0212 183.67 53.3938 183.67 60.0212V71.3964H504.544V60.0212C504.544 53.3938 499.171 48.0212 492.544 48.0212Z" fill="#E0E0E0"/>
<path d="M198.405 63.186C200.33 63.186 201.891 61.6255 201.891 59.7005C201.891 57.7756 200.33 56.2151 198.405 56.2151C196.48 56.2151 194.92 57.7756 194.92 59.7005C194.92 61.6255 196.48 63.186 198.405 63.186Z" fill="#FF5645"/>
<path d="M209.093 63.186C211.018 63.186 212.578 61.6255 212.578 59.7005C212.578 57.7756 211.018 56.2151 209.093 56.2151C207.168 56.2151 205.607 57.7756 205.607 59.7005C205.607 61.6255 207.168 63.186 209.093 63.186Z" fill="#FFCB3D"/>
<path d="M223.278 59.7005C223.28 60.3922 223.076 61.0688 222.693 61.6447C222.31 62.2205 221.764 62.6696 221.126 62.935C220.487 63.2005 219.784 63.2704 219.105 63.1358C218.427 63.0013 217.803 62.6684 217.314 62.1793C216.825 61.6902 216.492 61.0669 216.358 60.3884C216.223 59.7099 216.293 59.0067 216.559 58.368C216.824 57.7293 217.273 57.1837 217.849 56.8004C218.425 56.4172 219.101 56.2135 219.793 56.2151C220.717 56.2151 221.604 56.5823 222.258 57.236C222.911 57.8896 223.278 58.7761 223.278 59.7005Z" fill="#3ABF7C"/>
<rect x="202.834" y="91.3965" width="282.508" height="101.357" rx="12" stroke="#E0E0E0" stroke-width="2" stroke-linecap="round" stroke-linejoin="round" stroke-dasharray="16 16"/>
<circle cx="344.088" cy="142.075" r="22.7537" fill="#0B6DFF"/>
<path d="M341.818 134.129V139.237C341.818 139.387 341.758 139.532 341.652 139.638C341.545 139.745 341.401 139.805 341.25 139.805H336.147C335.545 139.805 334.968 140.044 334.542 140.469C334.116 140.895 333.877 141.473 333.877 142.075C333.877 142.677 334.116 143.254 334.542 143.68C334.968 144.106 335.545 144.345 336.147 144.345H341.25C341.401 144.345 341.545 144.405 341.652 144.511C341.758 144.617 341.818 144.762 341.818 144.912V150.02C341.818 150.622 342.057 151.199 342.483 151.625C342.908 152.051 343.486 152.29 344.088 152.29C344.69 152.29 345.267 152.051 345.693 151.625C346.119 151.199 346.358 150.622 346.358 150.02V144.912C346.358 144.762 346.418 144.617 346.524 144.511C346.631 144.405 346.775 144.345 346.926 144.345H352.029C352.631 144.345 353.208 144.106 353.634 143.68C354.06 143.254 354.299 142.677 354.299 142.075C354.299 141.473 354.06 140.895 353.634 140.469C353.208 140.044 352.631 139.805 352.029 139.805H346.921C346.77 139.805 346.626 139.745 346.52 139.638C346.413 139.532 346.353 139.387 346.353 139.237V134.129C346.353 133.527 346.114 132.95 345.689 132.524C345.263 132.098 344.685 131.859 344.083 131.859C343.481 131.859 342.904 132.098 342.478 132.524C342.052 132.95 341.813 133.527 341.813 134.129H341.818Z" fill="white"/>
<rect x="202.854" y="212.753" width="282.508" height="101.357" rx="12" fill="#EBEBEB"/>
<path d="M322.199 267.705L301.541 294.264C301.054 294.887 300.752 295.634 300.669 296.42C300.587 297.207 300.727 298 301.075 298.711C301.422 299.421 301.962 300.019 302.633 300.437C303.304 300.855 304.08 301.076 304.87 301.074H401.798C402.563 301.074 403.313 300.866 403.968 300.473C404.623 300.08 405.159 299.516 405.519 298.841C405.878 298.167 406.047 297.407 406.008 296.644C405.969 295.881 405.723 295.142 405.296 294.508L382.076 260.111C380.955 258.51 379.477 257.19 377.76 256.255C376.042 255.321 374.132 254.798 372.178 254.727C370.224 254.656 368.28 255.039 366.499 255.846C364.719 256.653 363.149 257.862 361.915 259.378L350.46 274.103L338.424 264.924C335.833 263.374 332.773 262.802 329.797 263.312C326.821 263.822 324.126 265.381 322.199 267.705V267.705Z" fill="#D6D6D6"/>
<path d="M329.416 248.791C335.288 248.791 340.049 244.03 340.049 238.158C340.049 232.286 335.288 227.525 329.416 227.525C323.544 227.525 318.783 232.286 318.783 238.158C318.783 244.03 323.544 248.791 329.416 248.791Z" fill="white"/>
<rect x="318.057" y="149.747" width="280.206" height="86.5555" rx="12" fill="white"/>
<rect x="394.885" y="168.753" width="142.966" height="8" rx="4" fill="#D6D6D6"/>
<rect x="394.885" y="184.753" width="105.023" height="8" rx="4" fill="#E0E0E0"/>
<rect x="394.885" y="196.753" width="127.771" height="8" rx="4" fill="#E0E0E0"/>
<rect x="394.885" y="208.753" width="89.9062" height="8" rx="4" fill="#E0E0E0"/>
<path d="M577.95 162.47L580.071 164.591C580.134 164.653 580.169 164.738 580.169 164.827C580.169 164.915 580.134 165 580.071 165.062L577.952 167.182C577.702 167.432 577.561 167.771 577.561 168.125C577.561 168.478 577.702 168.817 577.952 169.067C578.202 169.317 578.541 169.458 578.894 169.458C579.248 169.458 579.587 169.317 579.837 169.067L581.957 166.948C582.019 166.885 582.104 166.85 582.192 166.85C582.281 166.85 582.366 166.885 582.428 166.948L584.549 169.069C584.799 169.319 585.139 169.46 585.492 169.46C585.846 169.46 586.185 169.319 586.435 169.069C586.685 168.819 586.826 168.48 586.826 168.126C586.826 167.773 586.685 167.434 586.435 167.184L584.314 165.062C584.251 165 584.216 164.915 584.216 164.827C584.216 164.738 584.251 164.653 584.314 164.591L586.433 162.471C586.683 162.221 586.824 161.882 586.824 161.529C586.824 161.175 586.683 160.836 586.433 160.586C586.183 160.336 585.844 160.195 585.49 160.195C585.137 160.195 584.798 160.336 584.548 160.586L582.426 162.707C582.364 162.77 582.279 162.805 582.19 162.805C582.102 162.805 582.017 162.77 581.955 162.707L579.833 160.586C579.583 160.336 579.244 160.195 578.891 160.195C578.537 160.195 578.198 160.336 577.948 160.586C577.698 160.836 577.557 161.175 577.557 161.529C577.557 161.882 577.698 162.221 577.948 162.471L577.95 162.47Z" fill="#CCCCCC"/>
<rect x="202.854" y="334.11" width="109.952" height="12" rx="6" fill="#D6D6D6"/>
<rect x="342.373" y="334.11" width="142.966" height="12" rx="6" fill="#D6D6D6"/>
<rect x="202.854" y="358.11" width="80.7704" height="12" rx="6" fill="#E0E0E0"/>
<rect x="342.373" y="358.11" width="105.023" height="12" rx="6" fill="#E0E0E0"/>
<rect x="202.854" y="382.11" width="98.2659" height="12" rx="6" fill="#E0E0E0"/>
<rect x="342.373" y="382.11" width="127.771" height="12" rx="6" fill="#E0E0E0"/>
<rect x="202.854" y="406.11" width="69.1448" height="12" rx="6" fill="#E0E0E0"/>
<rect x="342.373" y="406.11" width="89.9062" height="12" rx="6" fill="#E0E0E0"/>
<rect x="342.373" y="430.11" width="89.9062" height="12" rx="6" fill="#E0E0E0"/>
<path d="M232.181 240.185C231.756 240.433 231.254 240.515 230.772 240.413C229.579 240.147 228.349 238.472 228.019 236.53C227.863 235.604 227.915 234.655 228.171 233.751C228.222 233.4 228.358 233.067 228.569 232.782C228.779 232.496 229.056 232.267 229.376 232.114C229.585 232.023 229.819 232.009 230.038 232.074C230.256 232.139 230.444 232.279 230.569 232.47C230.76 232.749 230.722 232.977 230.772 232.99C230.823 233.002 230.988 232.774 230.836 232.33C230.715 232.084 230.514 231.887 230.265 231.772C230.102 231.68 229.923 231.622 229.738 231.6C229.553 231.578 229.365 231.593 229.186 231.645C228.756 231.797 228.372 232.057 228.071 232.399C227.769 232.741 227.559 233.154 227.46 233.599C227.132 234.601 227.054 235.668 227.232 236.708C227.613 238.878 229.021 240.756 230.645 240.997C230.949 241.038 231.257 241.011 231.549 240.919C231.84 240.827 232.108 240.671 232.333 240.464C232.625 240.147 232.65 239.893 232.612 239.88C232.574 239.868 232.485 239.994 232.181 240.185Z" fill="#E0E0E0"/>
<path d="M165.911 496.579L163.271 508.291L181.418 510.525L182.065 498.926L165.911 496.579Z" fill="#0B6DFF"/>
<path d="M250.47 505.537L250.978 495.893L232.921 494.853L232.045 508.938L233.162 509.078C238.123 509.649 258.439 511.616 261.827 510.778C265.609 509.877 250.47 505.537 250.47 505.537Z" fill="#0B6DFF"/>
<path d="M238.61 509.179C238.426 507.642 237.686 506.225 236.529 505.195C235.389 504.178 233.908 503.625 232.38 503.647L232.088 508.723L238.61 509.179Z" fill="#0B6DFF"/>
<path d="M257.856 507.923C257.856 507.923 263.147 509.776 262.424 510.626C261.701 511.476 241.093 510.271 232.045 508.938V508.545L256.079 510.156C256.079 510.156 256.802 507.898 257.856 507.923Z" fill="#0B6DFF"/>
<path d="M320.748 181.736C323.382 178.75 325.848 175.62 328.133 172.359C330.798 168.171 330.43 167.917 329.897 167.676C328.463 167.029 324.948 174.846 324.732 172.752C324.517 170.658 330.138 163.717 328.539 163.108C326.56 162.309 323.019 170.569 322.677 171.242C322.334 171.915 321.408 171.407 321.7 170.823C322.194 169.973 327.232 160.887 325.291 160.088C324.212 159.644 323.628 161.687 323.628 161.687C323.628 161.687 319.542 170.569 318.629 170.125C317.715 169.681 319.898 164.428 320.824 162.702C321.75 160.976 321.243 159.872 320.177 160.101C319.453 160.253 316.636 165.468 315.812 167.194C314.987 168.92 312.791 173.704 312.005 170.417C311.218 167.131 309.365 164.91 308.464 164.656C307.563 164.402 306.903 165.582 307.551 166.407C308.161 167.369 308.635 168.411 308.959 169.504C309.263 170.368 309.417 171.278 309.416 172.194C309.416 172.993 309.416 173.691 309.416 174.326L309.099 181.051L316.713 186.305L320.748 181.736Z" fill="#FFBE9D"/>
<path d="M215.59 181.089L215.463 222.965L233.431 223.815L233.952 213.663C233.952 213.663 240.297 214.932 241.972 209.006C243.025 205.199 242.758 176.013 242.758 176.013L215.59 181.089Z" fill="#FFBE9D"/>
<path d="M210.877 180.328C210.877 180.543 210.991 180.747 211.055 180.937C210.951 180.816 210.841 180.702 210.725 180.594" fill="#263238"/>
<path d="M241.691 169.44C236.222 171.217 234.902 171.8 232.453 171.978C230.004 172.156 213.419 172.181 211.858 181.559L211.743 182.701C211.743 182.701 208.152 181.254 209.091 187.777C209.586 191.165 210.982 194.299 212.264 198.017C213.152 203.524 210.005 204.895 207.416 206.722C206.782 207.166 206.008 207.737 206.147 208.499C206.287 209.26 207.036 209.577 207.734 209.692C209.247 209.929 210.794 209.57 212.048 208.689C211.673 209.497 211.25 210.281 210.779 211.037C210.565 211.424 210.495 211.875 210.581 212.309C210.667 212.743 210.903 213.133 211.249 213.41C211.702 213.607 212.211 213.634 212.683 213.486C214.156 213.148 215.487 212.359 216.489 211.227C216.326 211.581 216.297 211.984 216.409 212.358C216.521 212.732 216.767 213.052 217.099 213.257C217.782 213.653 218.571 213.825 219.357 213.752C222.91 213.752 227.187 213.752 230.461 210.11C233.481 206.748 234.268 204.578 234.521 199.959C234.521 199.959 230.956 199.375 231.374 196.507C231.945 192.535 234.978 192.434 237.237 194.21L239.851 187.231C239.851 187.231 246.437 182.904 246.818 180.15C247.198 177.396 247.198 167.676 241.691 169.44Z" fill="#263238"/>
<path d="M192.782 312.465L159.205 501.058L187.947 502.682C187.947 502.682 218.478 340.116 222.958 339.709C224.836 339.545 225.585 501.401 227.095 501.058C228.605 500.715 258.146 501.578 258.146 501.578C258.146 501.578 254.149 310.067 254.212 310.054L192.782 312.465Z" fill="#2B2B2B"/>
<path d="M235.248 335.75C235.248 335.903 230.299 337.083 224.132 338.39C217.965 339.697 212.927 340.648 212.889 340.509C212.851 340.369 217.838 339.176 224.018 337.857C230.198 336.537 235.223 335.611 235.248 335.75Z" fill="#455A64"/>
<path d="M305.95 180.353C305.95 180.353 283.692 213.917 281.839 215.808C279.987 217.699 245.04 221.353 245.04 221.353C234.342 218.942 199.75 219.742 193.215 224.551C189.878 226.404 185.449 230.896 181.642 237.837L182.036 223.371C182.036 223.371 160.755 249.537 159.207 267.036C158.572 274.383 164.435 293.151 192.2 269.574L191.997 300.702L191.667 314.14L254.227 310.257L251.016 276.896C250.648 267.518 250.471 257.76 250.242 249.118C254.151 247.634 290.532 233.891 293.032 233.497C295.532 233.104 319.49 189.084 319.49 189.084C320.276 183.754 305.95 180.353 305.95 180.353Z" fill="#0B6DFF"/>
<path d="M170.295 252.392C172.016 249.575 173.928 246.878 176.018 244.322C177.935 241.65 180.025 239.107 182.274 236.708C180.549 239.523 178.637 242.219 176.551 244.778C174.634 247.45 172.544 249.993 170.295 252.392V252.392Z" fill="#263238"/>
<path d="M193.754 241.111C193.907 241.111 193.564 257.455 193.006 277.606C192.447 297.758 191.864 314.115 191.737 314.102C191.61 314.089 191.927 297.758 192.485 277.594C193.044 257.43 193.602 241.098 193.754 241.111Z" fill="#263238"/>
<path d="M284.941 223.358C284.106 222.259 283.49 221.01 283.126 219.678C282.602 218.424 282.177 217.13 281.857 215.808C282.683 216.913 283.298 218.16 283.672 219.488C284.197 220.743 284.621 222.037 284.941 223.358Z" fill="#263238"/>
<path d="M287.436 220.503C286.373 219.895 285.374 219.181 284.454 218.371C283.414 217.71 282.516 216.847 281.814 215.833C282.884 216.44 283.895 217.146 284.835 217.94C285.856 218.622 286.739 219.491 287.436 220.503Z" fill="#263238"/>
<path d="M250.785 220.884C249.65 221.081 248.527 221.343 247.423 221.671C244.804 222.548 242.531 224.235 240.935 226.489C239.338 228.743 238.499 231.446 238.54 234.208C238.593 235.356 238.712 236.5 238.895 237.634C238.723 237.369 238.606 237.071 238.553 236.759C238.326 235.93 238.194 235.079 238.159 234.221C238.012 231.344 238.842 228.502 240.515 226.156C242.187 223.811 244.604 222.101 247.372 221.303C248.197 221.052 249.049 220.899 249.91 220.846C250.202 220.81 250.498 220.822 250.785 220.884V220.884Z" fill="#263238"/>
<path d="M194.92 121.396C222.534 121.396 244.92 99.0107 244.92 71.3965C244.92 43.7822 222.534 21.3965 194.92 21.3965C167.306 21.3965 144.92 43.7822 144.92 71.3965C144.92 99.0107 167.306 121.396 194.92 121.396Z" fill="#0B6DFF"/>
<path opacity="0.6" d="M236.686 71.3965C236.683 81.1401 233.273 90.5759 227.047 98.0707C220.821 105.565 212.17 110.647 202.592 112.437C193.014 114.226 183.112 112.61 174.6 107.869C166.088 103.128 159.501 95.5598 155.98 86.4746C152.459 77.3894 152.226 67.3591 155.32 58.1199C158.414 48.8807 164.642 41.0141 172.924 35.8819C181.206 30.7497 191.023 28.6749 200.673 30.0166C210.324 31.3583 219.202 36.0321 225.77 43.2289C225.783 43.2231 225.797 43.22 225.811 43.22C225.825 43.22 225.839 43.2231 225.852 43.2289C232.855 50.9351 236.72 60.9836 236.686 71.3965V71.3965Z" fill="white"/>
<path d="M236.679 71.3966C236.679 79.5148 234.313 87.457 229.87 94.2516C225.427 101.046 219.101 106.399 211.664 109.654C204.227 112.91 196.003 113.928 187.996 112.583C179.99 111.238 172.55 107.589 166.585 102.082C159.292 94.1349 155.357 83.6743 155.603 72.8908C155.849 62.1073 160.258 51.8372 167.906 44.2311C175.554 36.625 185.848 32.2729 196.633 32.0861C207.417 31.8993 217.856 35.8923 225.763 43.229C225.776 43.2231 225.79 43.2201 225.804 43.2201C225.818 43.2201 225.832 43.2231 225.844 43.229C232.847 50.9352 236.713 60.9836 236.679 71.3966V71.3966Z" fill="white"/>
<path d="M194.924 73.8333C194.604 73.8339 194.287 73.771 193.992 73.6483C193.696 73.5256 193.428 73.3455 193.203 73.1185L172.832 52.7481C172.593 52.5251 172.401 52.256 172.268 51.9571C172.134 51.6583 172.063 51.3356 172.057 51.0084C172.051 50.6813 172.111 50.3563 172.234 50.0529C172.357 49.7495 172.539 49.4739 172.77 49.2425C173.002 49.0111 173.277 48.8287 173.581 48.7061C173.884 48.5836 174.209 48.5234 174.536 48.5292C174.863 48.535 175.186 48.6066 175.485 48.7397C175.784 48.8729 176.053 49.0649 176.276 49.3043L194.924 67.9528L205.694 57.1828C206.156 56.7524 206.767 56.5181 207.399 56.5292C208.03 56.5404 208.632 56.7961 209.078 57.2425C209.525 57.689 209.781 58.2913 209.792 58.9225C209.803 59.5538 209.569 60.1647 209.138 60.6266L196.646 73.1185C196.189 73.5741 195.57 73.8309 194.924 73.8333V73.8333Z" fill="#263238"/>
<circle cx="361.428" cy="187.87" r="21" fill="#EBEBEB"/>
<path d="M352.775 197.757V196.522C352.775 194.227 353.687 192.027 355.309 190.404C356.932 188.782 359.132 187.87 361.426 187.87C363.721 187.87 365.921 188.782 367.544 190.404C369.166 192.027 370.078 194.227 370.078 196.522V197.757" stroke="#CCCCCC" stroke-width="1.5" stroke-linecap="round" stroke-linejoin="round"/>
<path d="M361.426 187.87C362.737 187.87 363.994 187.35 364.921 186.423C365.849 185.495 366.369 184.238 366.369 182.927C366.369 181.616 365.849 180.359 364.921 179.431C363.994 178.504 362.737 177.984 361.426 177.984C360.115 177.984 358.857 178.504 357.93 179.431C357.003 180.359 356.482 181.616 356.482 182.927C356.482 184.238 357.003 185.495 357.93 186.423C358.857 187.35 360.115 187.87 361.426 187.87V187.87Z" stroke="#CCCCCC" stroke-width="1.5" stroke-linecap="round" stroke-linejoin="round"/>
<path opacity="0.15" d="M662.383 108.887H658.439V133.433H662.383V108.887Z" fill="white"/>
<path opacity="0.15" d="M649.289 108.887H645.346V133.433H649.289V108.887Z" fill="white"/>
<path opacity="0.15" d="M636.824 108.887H632.881V133.433H636.824V108.887Z" fill="white"/>
<path opacity="0.1" d="M664.116 237.982C664.116 237.982 607.149 238.407 603.455 239.23C602.657 239.418 601.858 242.974 603.455 243.236C605.053 243.498 664.116 244.035 664.116 244.035V237.982Z" fill="white"/>
<path opacity="0.1" d="M658.212 228.536C658.212 228.536 613.088 228.948 610.168 229.784C609.531 229.971 608.92 233.465 610.168 233.789C611.416 234.114 658.212 234.588 658.212 234.588V228.536Z" fill="white"/>
<path opacity="0.1" d="M657.989 219.551C657.989 219.551 612.865 219.963 609.945 220.799C609.309 220.986 608.697 224.542 609.945 224.804C611.193 225.067 657.989 225.603 657.989 225.603V219.551Z" fill="white"/>
<path opacity="0.2" d="M662.383 286.651H658.439V311.197H662.383V286.651Z" fill="white"/>
<path opacity="0.2" d="M649.289 286.651H645.346V311.197H649.289V286.651Z" fill="white"/>
<path opacity="0.2" d="M636.824 286.651H632.881V311.197H636.824V286.651Z" fill="white"/>
<path opacity="0.15" d="M634.927 392.772H618.779V396.666H634.927V392.772Z" fill="white"/>
<path opacity="0.15" d="M637.421 401.545H616.693V409.769H637.421V401.545Z" fill="white"/>
</svg>
