<svg width="160" height="160" viewBox="0 0 160 160" fill="none" xmlns="http://www.w3.org/2000/svg">
<circle cx="80" cy="80" r="80" fill="#080808"/>
<g clip-path="url(#clip0)">
<path d="M72.2344 77.4642L106.975 42.7237L117.664 53.4131L82.9238 88.1536L72.2344 77.4642Z" fill="white"/>
<path d="M106.984 53.413L120.346 66.7747L109.657 77.4641L96.295 64.1024L106.984 53.413Z" fill="white"/>
<path d="M48.1869 74.7917C37.8556 85.123 37.8556 101.873 48.1869 112.205C58.5182 122.536 75.2685 122.536 85.5999 112.205C95.9312 101.873 95.9312 85.123 85.5999 74.7917C75.2685 64.4604 58.5182 64.4604 48.1869 74.7917ZM74.9105 101.515C70.4824 105.943 63.3044 105.943 58.8763 101.515C54.4483 97.0871 54.4483 89.9092 58.8763 85.4811C63.3044 81.053 70.4824 81.053 74.9105 85.4811C79.3385 89.9092 79.3385 97.0871 74.9105 101.515Z" fill="white"/>
</g>
<defs>
<clipPath id="clip0">
<rect width="90.7026" height="90.7026" fill="white" transform="translate(16.1211 80.1365) rotate(-45)"/>
</clipPath>
</defs>
</svg>
