<svg width="26" height="27" viewBox="0 0 26 27" fill="none" xmlns="http://www.w3.org/2000/svg">
<path d="M25.7267 13.7925C25.7267 12.9366 25.6508 12.1239 25.5208 11.333H13.2773V16.2196H20.2875C19.9733 17.8231 19.0524 19.1775 17.6872 20.0985V23.3489H21.8694C24.3181 21.0844 25.7267 17.7473 25.7267 13.7925Z" fill="#4285F4"/>
<path d="M13.2761 26.5019C16.7866 26.5019 19.7229 25.3317 21.8682 23.3489L17.6859 20.0985C16.5157 20.8786 15.0313 21.3553 13.2761 21.3553C9.88475 21.3553 7.01349 19.0691 5.98418 15.9812H1.67188V19.3292C3.80635 23.5765 8.1945 26.5019 13.2761 26.5019Z" fill="#34A853"/>
<path d="M5.98344 15.9812C5.71257 15.2011 5.57171 14.3668 5.57171 13.5C5.57171 12.6332 5.7234 11.7989 5.98344 11.0188V7.6708H1.67114C0.782678 9.42606 0.273438 11.398 0.273438 13.5C0.273438 15.602 0.782678 17.5739 1.67114 19.3292L5.98344 15.9812Z" fill="#FBBC05"/>
<path d="M13.2761 5.64467C15.1939 5.64467 16.9058 6.3056 18.2601 7.59495L21.9657 3.88941C19.7229 1.78743 16.7866 0.498077 13.2761 0.498077C8.1945 0.498077 3.80635 3.42351 1.67188 7.6708L5.98417 11.0188C7.01349 7.93084 9.88475 5.64467 13.2761 5.64467Z" fill="#EA4335"/>
</svg>
