<svg width="100" height="30" viewBox="0 0 100 30" fill="none" xmlns="http://www.w3.org/2000/svg">
<path d="M17.1806 25.9688L10.7264 25.8495C8.63661 25.808 6.54168 25.891 4.49296 25.4603C1.37624 24.8168 1.15545 21.6616 0.924388 19.015C0.606041 15.2941 0.729272 11.5058 1.33002 7.81611C1.66891 5.74551 3.00391 4.51042 5.06804 4.37549C12.0357 3.88768 19.0496 3.94477 26.0019 4.1731C26.7362 4.19386 27.4756 4.30803 28.1996 4.43777C31.7733 5.07088 31.8605 8.64642 32.0916 11.6563C32.3227 14.6973 32.2251 17.7539 31.7835 20.7742C31.4292 23.2755 30.7515 25.3721 27.8915 25.5744C24.3075 25.8391 20.8057 26.0519 17.2114 25.9844C17.2114 25.9688 17.1909 25.9688 17.1806 25.9688V25.9688ZM13.3861 19.6377C16.087 18.0705 18.7364 16.5292 21.4218 14.9724C18.7159 13.4052 16.0716 11.8639 13.3861 10.307V19.6377Z" fill="white"/>
<path d="M83.8601 23.125C83.7368 23.6336 83.629 24.0332 83.5212 24.4587H80.9949V4.76453H83.9422V12.0298C84.0963 11.8326 84.1733 11.7496 84.24 11.6614C84.7432 10.9608 85.3953 10.5041 86.2374 10.3277C87.5775 10.063 88.7226 10.6598 89.1282 11.9624C89.3901 12.7719 89.5595 13.6386 89.58 14.4845C89.6211 16.6589 89.5903 18.8281 89.5133 21.0025C89.4825 21.6668 89.2822 22.3466 89.0306 22.9693C88.204 25.0244 85.5031 25.3358 84.163 23.5558C84.0809 23.4468 84.0038 23.3274 83.8601 23.125V23.125ZM84.0038 17.7072V21.3087C84.0038 21.8951 84.3119 22.2532 84.8921 22.3881C85.4621 22.523 85.9242 22.2999 86.1552 21.7654C86.2528 21.5422 86.3504 21.3087 86.3555 21.0752C86.412 18.8748 86.4633 16.6745 86.4787 14.4689C86.4787 14.0589 86.3812 13.6334 86.2579 13.2338C86.0269 12.5125 85.3902 12.2997 84.7638 12.72C84.2914 13.0418 84.0038 13.4985 84.0038 14.1056V17.7072ZM75.9938 10.6079H79.0797V24.4691H76.6716C76.5843 23.945 76.497 23.4053 76.3943 22.7721C76.23 23.016 76.1325 23.1717 76.0298 23.3274C75.2288 24.4951 74.094 24.8946 72.7539 24.6819C71.6088 24.4951 70.9208 23.6025 70.7668 22.139C70.7206 21.7031 70.7 21.262 70.7 20.8261C70.6898 17.5826 70.7 14.3288 70.7 11.0854V10.5975H73.8219V11.1632C73.8219 14.2977 73.8116 17.4269 73.8321 20.5614C73.8321 21.0077 73.8784 21.4696 73.9554 21.9159C74.0427 22.3725 74.3713 22.5386 74.8129 22.5075C75.5266 22.4504 76.0195 21.9159 76.0195 21.1997V11.2203C75.9938 11.0179 75.9938 10.8311 75.9938 10.6079V10.6079ZM54.7467 10.5975H57.848V11.184C57.848 14.3029 57.8378 17.4166 57.8583 20.5251C57.8583 20.9714 57.8994 21.4332 57.9918 21.8692C58.1099 22.3829 58.4077 22.549 58.9161 22.4815C59.6195 22.3829 60.0457 21.8899 60.0508 21.1686V11.241V10.6183H63.1367V24.4691H60.7388C60.6516 23.9553 60.5643 23.426 60.4513 22.7566C60.2973 22.9901 60.21 23.125 60.1227 23.2651C59.3217 24.4535 58.1972 24.8895 56.8263 24.6767C55.7275 24.5106 55.0548 23.6907 54.8494 22.3466C54.793 21.9262 54.7519 21.5111 54.7519 21.0907C54.7416 17.7227 54.7416 14.3392 54.7416 10.9712L54.7467 10.5975ZM53.155 17.9978C53.1447 18.4648 53.1139 18.9319 53.0883 19.399C52.9702 20.8001 52.9137 22.7877 51.7943 23.81C51.0806 24.4535 50.1769 24.6871 49.2424 24.7182C48.8265 24.7286 48.4055 24.7286 47.9896 24.6715C46.023 24.3705 45.109 23.4935 44.7804 21.3087C44.4056 18.7866 44.3748 16.223 44.8215 13.7009C45.2836 11.0905 46.8754 10.1668 49.3502 10.3381C51.6608 10.5041 52.6929 12.035 52.965 14.2146C53.1139 15.4653 53.1858 16.7315 53.155 17.9978V17.9978ZM50.0126 17.5203C50.0126 16.6329 50.0332 15.7403 50.0023 14.8529C49.9818 14.3392 49.9151 13.8202 49.8072 13.3117C49.684 12.7252 49.3143 12.445 48.8522 12.4554C48.4003 12.4658 48.082 12.746 47.9177 13.2909C47.8612 13.4933 47.7996 13.7009 47.7996 13.9033C47.7996 15.294 47.7893 16.69 47.7791 18.0808C47.7688 19.3782 47.6045 20.7378 48.0101 21.9781C48.1333 22.357 48.4517 22.5646 48.8676 22.5646C49.2732 22.5646 49.5402 22.3622 49.6891 21.9989C49.8072 21.7187 49.9099 21.4125 49.9099 21.1115C49.9459 19.9179 50.0126 18.7191 50.0126 17.5203ZM40.2517 14.91C40.5238 13.5659 40.7806 12.253 41.063 10.9349C41.4173 9.25864 41.8126 7.58243 42.1618 5.90103C42.2491 5.49106 42.4134 5.39246 42.7985 5.40284C43.6251 5.43397 44.4672 5.41322 45.3504 5.41322C45.0628 6.48226 44.7804 7.4994 44.5032 8.50098C43.6251 11.6458 42.7471 14.801 41.8794 17.9563C41.8126 18.2002 41.7818 18.4648 41.7818 18.7243C41.7715 20.4472 41.7818 22.165 41.7818 23.8879V24.4483H38.7678C38.7575 24.2927 38.737 24.137 38.737 23.9813C38.737 23.0057 38.66 22.0248 38.7472 21.0596C38.968 18.7399 38.2389 16.607 37.6484 14.4482C36.868 11.5939 36.0772 8.72931 35.2968 5.87508C35.2557 5.74015 35.2403 5.59485 35.1992 5.42878H38.2749C38.9218 8.57882 39.5739 11.7289 40.2517 14.91ZM99.2229 18.5271H94.0266C94.0831 19.5806 94.1036 20.5822 94.2115 21.5734C94.2885 22.2636 94.6633 22.5594 95.2538 22.5646C95.87 22.5749 96.2294 22.2636 96.3731 21.5785C96.4194 21.3554 96.4502 21.1322 96.4707 20.9039C96.4912 20.7015 96.5015 20.4836 96.5169 20.1929C97.3949 20.2397 98.2524 20.2915 99.0996 20.3279C99.5926 21.8069 98.7043 23.7062 97.2101 24.2927C96.0343 24.7597 94.8276 24.7597 93.6261 24.4016C92.7378 24.137 92.0755 23.5661 91.7777 22.6891C91.5004 21.8692 91.2385 21.0129 91.182 20.1566C91.028 18.0445 90.9715 15.9116 91.2899 13.7943C91.3463 13.4414 91.4439 13.1041 91.5517 12.7616C91.983 11.35 92.9227 10.4834 94.3758 10.3381C95.1665 10.2602 95.9829 10.2914 96.7634 10.4263C98.0265 10.6494 98.6991 11.568 98.9918 12.7719C99.1253 13.3376 99.2229 13.9188 99.2434 14.4949C99.2485 15.8182 99.2229 17.1311 99.2229 18.5271ZM96.2705 16.7056C96.2705 15.6625 96.2807 14.6817 96.2602 13.6957C96.2602 13.4621 96.1729 13.2182 96.0856 12.9951C95.911 12.5592 95.5465 12.4398 95.11 12.4398C94.6736 12.4398 94.3963 12.663 94.2885 13.0626C93.9599 14.2613 94.0677 15.4861 94.078 16.716C94.8636 16.7056 95.5773 16.7056 96.2705 16.7056V16.7056Z" fill="white"/>
<path d="M65.5199 7.9563H62.4648V5.45496H71.5839V7.94074H68.5493V24.4486H65.5251L65.5199 7.9563Z" fill="white"/>
</svg>
