<svg width="89" height="30" viewBox="0 0 89 30" fill="none" xmlns="http://www.w3.org/2000/svg">
<path d="M11.7393 0.233398H12.5164C15.2143 0.292675 17.8682 1.3893 19.7744 3.33062C19.0706 4.05676 18.3521 4.75326 17.6629 5.47941C16.5926 4.50134 15.3023 3.74556 13.8947 3.47881C11.8126 3.03423 9.56923 3.43435 7.82439 4.63471C5.91826 5.89434 4.62796 8.02831 4.34937 10.3105C4.04146 12.563 4.67195 14.9341 6.12354 16.6827C7.51648 18.387 9.64254 19.4539 11.8419 19.528C13.8947 19.6466 16.0354 19.0094 17.531 17.5571C18.704 16.5346 19.2465 14.9785 19.4225 13.467C16.9885 13.467 14.5545 13.4818 12.1205 13.467V10.4142H22.3696C22.8975 13.6893 22.135 17.3792 19.6717 19.7207C18.0295 21.3804 15.7568 22.3585 13.4401 22.5512C11.1968 22.7734 8.88009 22.3437 6.88599 21.2471C4.496 19.9578 2.58987 17.7794 1.65147 15.2156C0.771714 12.8594 0.757051 10.1919 1.57815 7.82084C2.32594 5.65724 3.76287 3.74556 5.61035 2.41183C7.38452 1.09291 9.53991 0.366772 11.7393 0.233398Z" fill="white"/>
<path d="M70.5391 1.00403H73.6768V22.1659C72.6358 22.1659 71.5801 22.1807 70.5391 22.151C70.5537 15.1119 70.5391 8.05797 70.5391 1.00403V1.00403Z" fill="white"/>
<path d="M29.3517 8.33946C31.2872 7.96899 33.3839 8.38392 34.9821 9.55463C36.4337 10.592 37.4454 12.2221 37.7534 14.0004C38.1492 16.0602 37.6507 18.3127 36.3311 19.9428C34.9088 21.7656 32.5775 22.7436 30.3048 22.5955C28.2227 22.4769 26.1993 21.4247 24.9676 19.7057C23.5747 17.8089 23.2374 15.2007 23.9999 12.9778C24.7623 10.592 26.9177 8.76922 29.3517 8.33946V8.33946ZM29.7916 11.1551C28.9998 11.3626 28.2667 11.822 27.7388 12.474C26.3166 14.193 26.4045 16.9938 27.9734 18.5943C28.8679 19.5131 30.2168 19.9428 31.4631 19.6909C32.6215 19.4834 33.6332 18.698 34.1904 17.6607C35.1581 15.8972 34.8795 13.4669 33.3986 12.0887C32.4455 11.1996 31.0526 10.8291 29.7916 11.1551Z" fill="white"/>
<path d="M44.894 8.33946C47.108 7.9097 49.5273 8.53211 51.1842 10.1029C53.8821 12.5481 54.1754 17.1273 51.8734 19.9429C50.4804 21.7212 48.2224 22.6993 45.9937 22.5956C43.8676 22.5363 41.7709 21.4693 40.5099 19.7058C39.0876 17.7645 38.7797 15.097 39.5861 12.8297C40.3926 10.5179 42.504 8.7544 44.894 8.33946V8.33946ZM45.3339 11.1551C44.5421 11.3626 43.809 11.822 43.2811 12.4592C41.8735 14.1486 41.9322 16.905 43.4424 18.5203C44.3368 19.4835 45.7298 19.9578 47.0201 19.691C48.1637 19.4687 49.1901 18.6981 49.7473 17.6608C50.7004 15.8825 50.4218 13.4521 48.9262 12.0739C47.9731 11.1848 46.5802 10.8291 45.3339 11.1551Z" fill="white"/>
<path d="M58.0695 9.19907C59.7557 8.13208 61.9991 7.8357 63.8173 8.75449C64.3891 9.00642 64.8583 9.43617 65.3128 9.86593C65.3275 9.46581 65.3128 9.05087 65.3275 8.63594C66.3099 8.65076 67.2923 8.63594 68.2893 8.65076V21.7213C68.2747 23.6922 67.7761 25.7818 66.3685 27.2192C64.829 28.8049 62.4683 29.2939 60.3422 28.9679C58.0695 28.627 56.0901 26.9525 55.2103 24.8333C56.0901 24.4036 57.0138 24.0627 57.9229 23.6626C58.4361 24.8778 59.4771 25.9151 60.7821 26.1522C62.0871 26.3893 63.5973 26.0633 64.4477 24.9667C65.3568 23.8404 65.3568 22.2992 65.3128 20.9211C64.6384 21.5879 63.8612 22.1807 62.9228 22.403C60.8847 22.9809 58.6414 22.2696 57.0725 20.8766C55.4889 19.4836 54.5505 17.3348 54.6385 15.2008C54.6825 12.7853 56.0314 10.4587 58.0695 9.19907V9.19907ZM61.1047 11.0959C60.2103 11.2441 59.3745 11.748 58.8027 12.4445C57.4244 14.1042 57.4244 16.7569 58.8173 18.387C59.6091 19.3502 60.8847 19.8837 62.1164 19.7503C63.2747 19.6318 64.3451 18.8908 64.9169 17.8683C65.8847 16.1345 65.7234 13.7782 64.4184 12.2666C63.612 11.333 62.3217 10.8736 61.1047 11.0959V11.0959Z" fill="white"/>
<path d="M77.4419 9.95482C79.2014 8.29507 81.914 7.73194 84.172 8.60627C86.3127 9.42133 87.6763 11.4812 88.3655 13.6003C85.1837 14.9341 82.0166 16.253 78.8348 17.5867C79.2747 18.4314 79.9492 19.202 80.8583 19.5132C82.1339 19.9726 83.6588 19.8096 84.7292 18.9501C85.1544 18.6241 85.4916 18.1943 85.8142 17.7794C86.6206 18.3277 87.4271 18.8612 88.2335 19.4095C87.0898 21.1433 85.1691 22.3585 83.1016 22.5512C80.8143 22.8327 78.3803 21.9436 76.8994 20.1356C74.4654 17.2903 74.7 12.5185 77.4419 9.95482V9.95482ZM79.0108 12.6964C78.5123 13.4225 78.307 14.3117 78.3216 15.186C80.4477 14.2969 82.5738 13.4077 84.6999 12.5037C84.348 11.6738 83.4975 11.17 82.6324 11.0366C81.2395 10.7847 79.7879 11.5405 79.0108 12.6964V12.6964Z" fill="white"/>
</svg>
