<svg width="108" height="30" viewBox="0 0 108 30" fill="none" xmlns="http://www.w3.org/2000/svg">
<path d="M7.29191 25.1394H3.26133V14.9843H0.515625V11.678H3.26123V9.32536C3.26123 6.53744 4.47561 4.53796 8.49528 4.53796C9.34544 4.53796 10.6802 4.71115 10.6802 4.71115V7.78123H9.27827C7.84985 7.78123 7.29213 8.22037 7.29213 9.43444V11.678H10.6267L10.3297 14.9843H7.29202L7.29191 25.1394ZM16.5402 11.4138C16.4815 11.4138 16.421 11.416 16.3612 11.4175C12.6238 11.4175 10.9139 14.2588 10.9139 18.2921C10.9139 23.373 13.1319 25.4066 16.3904 25.4066C18.2547 25.4066 19.4796 24.6135 20.2241 23.1335V25.1408H24.0577V11.6794H20.2241V13.7496C19.6162 12.4177 18.3571 11.4296 16.5402 11.4138ZM17.515 14.5947C19.0847 14.5947 20.0268 15.7013 20.0268 17.5836L20.0305 19.5061C20.0305 20.7748 19.2523 22.259 17.515 22.259C14.844 22.259 14.9154 19.3441 14.9154 18.3733C14.9154 15.1077 16.3384 14.5947 17.515 14.5947ZM25.606 18.4108C25.606 16.775 25.5285 11.4226 32.4283 11.4226C35.1979 11.4226 36.3544 12.3126 36.3544 12.3126L35.4249 15.2265C35.4249 15.2265 34.2699 14.5837 32.7649 14.5837C30.8372 14.5837 29.6072 15.7131 29.6072 17.7002L29.6094 19.1251C29.6094 21.0345 30.7962 22.3091 32.7688 22.3091C34.1399 22.3091 35.4036 21.6603 35.4036 21.6603L36.3308 24.5133C36.3308 24.5133 35.2733 25.409 32.4476 25.409C25.878 25.409 25.6061 20.6068 25.6061 18.4108H25.606ZM58.8326 11.4175C62.5701 11.4175 64.307 14.2588 64.307 18.2921C64.307 23.373 62.0888 25.4066 58.8303 25.4066C56.966 25.4066 55.5879 24.6136 54.8434 23.1335V25.1408L51.058 25.1393V4.94726L55.0771 4.59299V13.5672C55.6572 11.9972 57.5635 11.4175 58.8327 11.4175H58.8326ZM57.7058 14.5947C56.1361 14.5947 55.0771 15.7013 55.0771 17.5836L55.0734 19.5061C55.071 20.7748 55.8067 22.259 57.7058 22.259C60.3767 22.259 60.3054 19.3441 60.3054 18.3733C60.3054 15.1077 58.8824 14.5947 57.7058 14.5947ZM43.328 11.4286C39.0889 11.4286 36.851 13.7645 36.851 17.9157V18.6869C36.851 24.0748 39.9937 25.4619 43.7405 25.4619C47.3824 25.4619 49.0309 24.4324 49.0309 24.4324L48.2788 21.6908C48.2788 21.6908 46.3397 22.5246 44.2224 22.5246C42.0275 22.5246 41.0835 21.9592 40.8415 19.8273H49.3522V17.6278C49.3522 13.1248 46.8405 11.4285 43.3279 11.4285L43.328 11.4286ZM43.4301 14.1739C44.8975 14.1739 45.8483 15.0834 45.7961 17.1925H40.8489C40.9347 14.9726 41.9601 14.174 43.4301 14.174V14.1739ZM72.321 11.4101C67.9678 11.4101 65.676 13.8895 65.676 18.3327C65.676 24.4289 69.6265 25.4103 72.3282 25.4103C76.2834 25.4103 78.9148 23.2581 78.9148 18.388C78.9148 13.3191 75.9561 11.4101 72.321 11.4101V11.4101ZM72.2662 14.6057C74.1804 14.6057 74.9388 16.0536 74.9388 17.7018V19.1187C74.9388 21.1153 73.8775 22.2701 72.2589 22.2701C70.7451 22.2701 69.6813 21.1899 69.6813 19.1187V17.7018C69.6813 15.4929 70.9472 14.6057 72.2662 14.6057V14.6057ZM86.9216 11.4101C82.5684 11.4101 80.2767 13.8895 80.2767 18.3327C80.2767 24.4289 84.2271 25.4103 86.9289 25.4103C90.8839 25.4103 93.5154 23.2581 93.5154 18.388C93.5154 13.3191 90.5566 11.4101 86.9216 11.4101V11.4101ZM86.8668 14.6057C88.781 14.6057 89.5394 16.0536 89.5394 17.7018V19.1187C89.5394 21.1153 88.4781 22.2701 86.8596 22.2701C85.3458 22.2701 84.2819 21.1899 84.2819 19.1187V17.7018C84.2819 15.4929 85.5478 14.6057 86.8668 14.6057V14.6057ZM95.0342 25.1394V4.94726L99.065 4.59299V18.1271L103.064 11.678H107.321L103.149 18.3573L107.482 25.1394H103.213L99.065 18.5541V25.1394H95.0342Z" fill="white"/>
</svg>
